<svg width="265" height="362" viewBox="0 0 265 362" fill="none" xmlns="http://www.w3.org/2000/svg">
<g clip-path="url(#clip0_3_8)">
<rect width="265" height="362" fill="white"/>
<g style="mix-blend-mode:multiply">
<g clip-path="url(#clip1_3_8)">
<path d="M231.734 0.198303H33.1048C14.8213 0.198303 0 15.3841 0 34.1172V362L132.419 282.856L264.838 362V34.1172C264.838 15.3841 250.017 0.198303 231.734 0.198303ZM231.734 302.946L132.419 243.588L33.1048 302.946V38.3571C33.1048 37.2326 33.5408 36.1542 34.3168 35.359C35.0929 34.5639 36.1454 34.1172 37.2429 34.1172H227.595C229.881 34.1172 231.734 36.0131 231.734 38.3542V302.946Z" fill="#030303"/>
<path d="M12.4561 218.496V218.486L12.456 218.477L12.0245 160.306C12.0245 160.303 12.0245 160.3 12.0245 160.297C12.0292 88.0879 66.1447 29.7295 132.285 29.7295C198.289 29.7295 252.35 87.9397 252.114 159.934L254.612 159.942H252.114C252.114 160.578 252.321 161.074 252.494 161.387C252.511 161.419 252.529 161.449 252.546 161.478L252.544 218.451C252.125 240.313 236.216 257.613 216.683 257.613C205.56 257.613 196.166 247.722 196.166 235.13V168.675C196.166 156.08 205.549 146.171 216.683 146.171C218.063 146.171 219.419 146.281 220.753 146.484C223.763 146.942 226.816 146.052 229.008 144.257C231.242 142.428 232.695 139.529 232.009 136.179C221.843 86.5608 181.151 49.7489 132.285 49.7489C83.4355 49.7489 42.7509 86.5361 32.5714 136.138C31.8818 139.498 33.3457 142.402 35.5852 144.234C37.7831 146.032 40.8431 146.928 43.8582 146.476C45.179 146.278 46.5213 146.171 47.8873 146.171C59.0216 146.171 68.4049 156.08 68.4049 168.675V235.161C68.4049 247.702 59.0249 257.613 47.8873 257.613C28.3379 257.613 12.4561 240.314 12.4561 218.496Z" fill="#72C58B" stroke="white" stroke-width="5"/>
</g>
</g>
</g>
<defs>
<clipPath id="clip0_3_8">
<rect width="265" height="362" fill="white"/>
</clipPath>
<clipPath id="clip1_3_8">
<rect width="264.838" height="361.802" fill="white" transform="translate(0 0.198303)"/>
</clipPath>
</defs>
</svg>

